<?xml version="1.0" encoding="utf-8"?>
<!-- Generator: Adobe Illustrator 15.1.0, SVG Export Plug-In . SVG Version: 6.00 Build 0)  -->
<!DOCTYPE svg PUBLIC "-//W3C//DTD SVG 1.1//EN" "http://www.w3.org/Graphics/SVG/1.1/DTD/svg11.dtd">
<svg version="1.1" id="Layer_1" xmlns="http://www.w3.org/2000/svg" xmlns:xlink="http://www.w3.org/1999/xlink" x="0px" y="0px"
	 width="607.316px" height="448.78px" viewBox="0 0 607.316 448.78" enable-background="new 0 0 607.316 448.78"
	 xml:space="preserve">
<g>
	<path fill-rule="evenodd" clip-rule="evenodd" fill="none" d="M-71.661,87.861c137.667,0,275.375,0,413.041,0
		c36.032,0,72.075,0,108.106,0c14.695,0,35.644-2.422,44.734,3.728c14.592,9.873,10.438,40.727,10.438,64.864
		c0,59.639,0,119.296,0,178.935c0,41.996,0,84.004,0,126c0,16.113,3.137,41.279-3.728,51.443
		c-7.549,11.178-22.752,10.439-41.752,10.438c-29.819,0-59.647,0-89.467,0c-109.835,0-219.704,0-329.539,0
		c-28.08,0-56.168,0-84.249,0c-14.017,0-29.878,1.397-38.023-4.474c-13.63-9.823-9.693-39.493-9.692-62.627
		c0-57.402,0-114.822,0-172.225c0-41.996,0-84.004,0-126c0-13.696-2.548-45.451,1.491-55.172c2.318-5.579,8.053-10.84,13.42-13.42
		C-75.347,88.615-72.941,88.721-71.661,87.861z"/>
	<path fill-rule="evenodd" clip-rule="evenodd" fill="none" d="M-68.679,241.447c-3.753,2.856-7.982,3.229-9.692,8.201
		c-2.396,3.185-1.491,10.956-1.491,16.402c0,13.916,0,27.835,0,41.751c0,47.215,0,94.442,0,141.657
		c0,12.929-2.945,46.77,2.237,54.426c6.548,9.674,47.015,5.965,64.118,5.965c63.864,0,127.746,0,191.609,0
		c77.034,0,154.09,0,231.125,0c18.637,0,37.28,0,55.917,0c9.095,0,19.284,0.819,23.857-3.729c4.149-4.124,3.729-11.749,3.729-20.13
		c0-14.661,0-29.326,0-43.988c0-42.74,0-85.495,0-128.236c0-20.916,2.644-47.326-1.491-65.609c-2.919-1.936-5.353-5.561-8.947-6.71
		c-14.164,0-28.333,0-42.497,0c-34.789,0-69.589,0-104.378,0C200.731,241.447,66.006,241.447-68.679,241.447z"/>
</g>
<path fill-rule="evenodd" clip-rule="evenodd" fill="#1E9DD8" d="M25.917,7.317c137.781,0,275.603,0,413.384,0
	c36.061,0,72.134,0,108.195,0c14.707,0,35.673-2.425,44.771,3.731c14.604,9.881,10.447,40.761,10.447,64.917
	c0,59.688,0,119.395,0,179.084c0,42.029,0,84.072,0,126.104c0,16.127,3.139,41.313-3.731,51.486
	c-7.554,11.186-22.771,10.447-41.786,10.447c-29.844,0-59.697,0-89.541,0c-109.926,0-219.886,0-329.812,0
	c-28.104,0-56.215,0-84.318,0c-14.028,0-29.902,1.398-38.055-4.479c-13.641-9.83-9.701-39.525-9.7-62.678
	c0-57.451,0-114.918,0-172.368c0-42.031,0-84.074,0-126.104c0-13.708-2.55-45.489,1.493-55.217
	c2.319-5.584,8.06-10.85,13.431-13.432C22.229,8.072,24.635,8.178,25.917,7.317z"/>
<path fill-rule="evenodd" clip-rule="evenodd" fill="#FFFFFF" d="M28.902,161.031c-3.756,2.858-7.989,3.231-9.701,8.208
	c-2.397,3.188-1.492,10.965-1.492,16.415c0,13.928,0,27.859,0,41.786c0,47.254,0,94.522,0,141.774
	c0,12.941-2.948,46.809,2.239,54.471c6.554,9.684,47.054,5.971,64.171,5.971c63.916,0,127.852,0,191.768,0
	c77.098,0,154.217,0,231.315,0c18.652,0,37.312,0,55.964,0c9.103,0,19.3,0.82,23.878-3.73c4.152-4.129,3.73-11.76,3.73-20.148
	c0-14.674,0-29.35,0-44.023c0-42.777,0-85.566,0-128.344c0-20.933,2.646-47.365-1.492-65.664c-2.921-1.938-5.356-5.564-8.954-6.715
	c-14.176,0-28.356,0-42.532,0c-34.818,0-69.646,0-104.465,0C298.535,161.031,163.698,161.031,28.902,161.031z"/>
<text transform="matrix(1 0 0 1 168.6484 92.2686)"><tspan x="0" y="0" fill="#FFFFFF" font-family="'Arial-BoldMT'" font-size="90">HELLO</tspan><tspan x="33.594" y="48" fill="#FFFFFF" font-family="'Arial-BoldMT'" font-size="40">MY NAME IS</tspan></text>
<text transform="matrix(0.9932 -0.1167 0.1167 0.9932 229.729 376.8486)" font-family="'geekriot'" font-size="150">???</text>
</svg>
